<?xml version="1.0" encoding="UTF-8"?>
<svg width="117px" height="36px" viewBox="0 0 117 36" version="1.1" xmlns="http://www.w3.org/2000/svg" xmlns:xlink="http://www.w3.org/1999/xlink">
    <!-- Generator: Sketch 53.2 (72643) - https://sketchapp.com -->
    <title>Logo</title>
    <desc>Created with Sketch.</desc>
    <defs>
        <polygon id="path-1" points="0 36 117 36 117 0 0 0"></polygon>
    </defs>
    <g id="Page-1" stroke="none" stroke-width="1" fill="none" fill-rule="evenodd">
        <g id="Home-Copy-5" transform="translate(-32.000000, -24.000000)">
            <g id="Home---Nav">
                <g id="Logo" transform="translate(32.000000, 24.000000)">
                    <g id="Group-14">
                        <path d="M18.9094598,9.69230769 L11.6171761,9.69230769 L11.6171761,13.3488767 L14.4658164,13.3488767 L14.4658164,19.4529083 C14.4658164,20.5375329 14.2899402,21.4116267 13.9440734,22.0496811 C13.600284,22.6819537 12.9393634,23.3023222 11.9789686,23.8924205 C11.0258443,24.4787776 10.119805,24.7760375 9.28820147,24.7760375 C8.6695189,24.7760375 8.13877442,24.5923758 7.66342402,24.2145088 C7.23273508,23.873034 7.01496713,23.1941658 7.01496713,22.1972908 L7.01496713,9.69230769 L0,9.69230769 L0,13.3488767 L2.68211185,13.3488767 L2.68211185,22.7237877 C2.68211185,24.5250331 3.21043284,25.9569144 4.25288008,26.9803184 C5.2946349,28.0040625 6.73972782,28.5230769 8.54799814,28.5230769 C9.99170622,28.5230769 11.3640944,28.2057503 12.6267331,27.5792597 C13.3828622,27.2037735 14.0597086,26.7687673 14.6510403,26.2776422 L14.6510403,28.0870504 L21.8325359,28.0870504 L21.8325359,24.4304814 L18.9094598,24.4304814 L18.9094598,9.69230769 Z" id="Fill-1" fill="#000000"></path>
                        <path d="M30.8541523,3.87692308 L26.5129541,3.87692308 L26.5129541,9.85822732 L23.5119617,9.85822732 L23.5119617,13.5613659 L26.5129541,13.5613659 L26.5129541,25.5411967 C26.5129541,26.1625772 26.6982471,26.7512354 27.0633529,27.2902933 C27.4308564,27.8338291 27.9901602,28.2488865 28.7357846,28.5271988 C29.2560433,28.7111329 30.0616053,28.8 31.1997356,28.8 C32.1399004,28.8 32.96978,28.6997662 33.6653992,28.5020542 L34.0931827,28.3804648 L34.0931827,24.5857036 L33.4092085,24.7004041 C32.9303924,24.7803156 32.4025986,24.8213046 31.8405547,24.8213046 C31.2130931,24.8213046 31.0301977,24.6886929 30.9993726,24.6618261 C30.9596425,24.6270371 30.8541523,24.5354145 30.8541523,24.2340242 L30.8541523,13.5613659 L34.1483254,13.5613659 L34.1483254,9.85822732 L30.8541523,9.85822732 L30.8541523,3.87692308 Z" id="Fill-3" fill="#000000"></path>
                        <mask id="mask-2" fill="white">
                            <use xlink:href="#path-1"></use>
                        </mask>
                        <g id="Clip-6"></g>
                        <polygon id="Fill-5" fill="#000000" mask="url(#mask-2)" points="39.1866029 6.64615385 44.784689 6.64615385 44.784689 2.21538462 39.1866029 2.21538462"></polygon>
                        <polygon id="Fill-7" fill="#000000" mask="url(#mask-2)" points="44.8663595 9.69230769 37.3211251 9.69230769 37.3211251 13.3805038 40.3565074 13.3805038 40.3565074 24.5579577 37.2272727 24.5579577 37.2272727 28.2461538 47.8636364 28.2461538 47.8636364 24.5579577 44.8663595 24.5579577"></polygon>
                        <polygon id="Fill-8" fill="#000000" mask="url(#mask-2)" points="57.7013764 0 50.1962246 0 50.1962246 3.67843521 53.2154821 3.67843521 53.2154821 24.5684029 50.1028708 24.5684029 50.1028708 28.2461538 60.7392344 28.2461538 60.7392344 24.5684029 57.7013764 24.5684029"></polygon>
                        <polygon id="Fill-9" fill="#000000" mask="url(#mask-2)" points="65.2177033 6.64615385 70.8157895 6.64615385 70.8157895 2.21538462 65.2177033 2.21538462"></polygon>
                        <polygon id="Fill-10" fill="#000000" mask="url(#mask-2)" points="70.89746 9.69230769 63.3522255 9.69230769 63.3522255 13.3805038 66.3876079 13.3805038 66.3876079 24.5579577 63.2583732 24.5579577 63.2583732 28.2461538 73.8947368 28.2461538 73.8947368 24.5579577 70.89746 24.5579577"></polygon>
                        <path d="M82.6367914,3.87692308 L78.2955932,3.87692308 L78.2955932,9.85822732 L75.2942584,9.85822732 L75.2942584,13.5613659 L78.2955932,13.5613659 L78.2955932,25.5411967 C78.2955932,26.1625772 78.4805437,26.7512354 78.8456496,27.2902933 C79.213153,27.8338291 79.7731419,28.2488865 80.5184237,28.5271988 C81.0379975,28.7111329 81.8442445,28.8 82.9823748,28.8 C83.9228821,28.8 84.7527616,28.6997662 85.4480383,28.5020542 L85.8758219,28.3804648 L85.8758219,24.5857036 L85.1918477,24.7004041 C84.7130315,24.7803156 84.1848952,24.8213046 83.6228513,24.8213046 C82.9953898,24.8213046 82.8131793,24.6890374 82.7820118,24.6618261 C82.7422817,24.6270371 82.6367914,24.53507 82.6367914,24.2340242 L82.6367914,13.5613659 L85.930622,13.5613659 L85.930622,9.85822732 L82.6367914,9.85822732 L82.6367914,3.87692308 Z" id="Fill-11" fill="#000000" mask="url(#mask-2)"></path>
                        <polygon id="Fill-12" fill="#000000" mask="url(#mask-2)" points="98.9525424 13.3830675 101.267948 13.3830675 97.5917007 21.7532756 94.2406842 13.3830675 96.717146 13.3830675 96.717146 9.69230769 87.3301435 9.69230769 87.3301435 13.3830675 89.6341189 13.3830675 95.2194927 27.0558034 92.8839988 32.3456294 89.5693499 32.3456294 89.5693499 36 100.196315 36 100.196315 32.3456294 97.2224828 32.3456294 105.725233 13.3830675 108.043062 13.3830675 108.043062 9.69230769 98.9525424 9.69230769"></polygon>
                        <path d="M116.006265,23.3953809 C115.350721,22.7548977 114.551702,22.4307692 113.632096,22.4307692 C112.709415,22.4307692 111.912446,22.7565876 111.262026,23.4001127 C110.611947,24.0432997 110.282297,24.8318207 110.282297,25.7443825 C110.282297,26.6552544 110.610581,27.4458033 111.257585,28.0937222 C111.899123,28.7372473 112.720005,29.0769231 113.632096,29.0769231 C114.552385,29.0769231 115.351746,28.7521187 116.006265,28.1123114 C116.656002,27.477574 117,26.6593103 117,25.7443825 C117,24.8422983 116.656343,24.0301183 116.006265,23.3953809" id="Fill-13" fill="#000000" mask="url(#mask-2)"></path>
                    </g>
                </g>
            </g>
        </g>
    </g>
</svg>